<?xml version="1.0" standalone="no"?><!DOCTYPE svg PUBLIC "-//W3C//DTD SVG 1.1//EN" "http://www.w3.org/Graphics/SVG/1.1/DTD/svg11.dtd"><svg t="1589375839425" class="icon" viewBox="0 0 1404 1024" version="1.1" xmlns="http://www.w3.org/2000/svg" p-id="3880" xmlns:xlink="http://www.w3.org/1999/xlink" width="274.21875" height="200"><defs><style type="text/css"></style></defs><path d="M701.539219 324.429406c103.549677 0 187.491849 83.942172 187.491849 187.491849s-83.942172 187.491849-187.491849 187.491849S514.04737 615.470932 514.04737 511.921255 597.989542 324.429406 701.539219 324.429406zM1197.632728 15.985235c-21.182405-21.26115-55.515226-21.26115-76.618886 0-21.26115 21.10366-21.26115 55.357736 0 76.618886C1232.989234 204.737004 1294.725315 353.486312 1294.725315 511.84251c0 158.592433-61.736081 307.499231-173.711473 419.474623-21.26115 21.26115-21.26115 55.593971 0 76.776376 10.55183 10.55183 24.41095 15.827745 38.348816 15.827745 13.85912 0 27.796986-5.275915 38.191326-15.827745 132.606583-132.606583 205.524454-308.680406 205.524454-496.251C1403.157182 324.665641 1330.160566 148.434328 1197.632728 15.985235zM108.353122 511.84251c0-158.434943 61.736081-307.341741 173.711473-419.317133 21.339895-21.26115 21.339895-55.515226 0-76.697631-21.10366-21.182405-55.515226-21.182405-76.618886 0C72.917871 148.355583 0 324.586896 0 511.84251c0 187.570594 72.996616 363.644417 205.445709 496.251 10.630575 10.630575 24.41095 15.90649 38.191326 15.90649 13.937865 0 27.796986-5.275915 38.270071-15.90649 21.339895-21.10366 21.339895-55.357736 0-76.697631C170.089203 819.420486 108.353122 670.513688 108.353122 511.84251zM1034.70932 178.829898c-21.182405-21.182405-55.436481-21.182405-76.618886 0-21.182405 21.26115-21.182405 55.515226 0 76.776376 68.508151 68.429406 106.148262 159.458628 106.148262 256.31498 0 96.935097-37.718856 188.043064-106.148262 256.62996-21.182405 21.26115-21.182405 55.515226 0 76.618886 10.55183 10.788065 24.489695 15.90649 38.270071 15.90649s27.796986-5.118425 38.270071-15.90649c89.060597-89.060597 138.039988-207.256844 138.039988-333.170102S1123.769917 267.81175 1034.70932 178.829898zM444.988004 178.829898c-21.26115-21.182405-55.515226-21.182405-76.697631 0C279.387265 267.81175 230.329129 386.007998 230.329129 511.84251c0 125.992002 49.058136 244.34574 138.039988 333.170102 10.55183 10.788065 24.56844 15.985235 38.270071 15.985235 13.85912 0 27.875731-5.19717 38.270071-15.985235 21.26115-21.10366 21.26115-55.357736 0-76.618886C376.401107 699.964319 338.603507 608.777607 338.603507 511.763765c0-96.777607 37.718856-187.964319 106.305752-256.47247C466.249154 234.187635 466.249154 200.012304 444.988004 178.829898z" p-id="3881"></path></svg>