<?xml version="1.0" standalone="no"?><!DOCTYPE svg PUBLIC "-//W3C//DTD SVG 1.1//EN" "http://www.w3.org/Graphics/SVG/1.1/DTD/svg11.dtd"><svg t="1588528421395" class="icon" viewBox="0 0 1024 1024" version="1.1" xmlns="http://www.w3.org/2000/svg" p-id="1384" xmlns:xlink="http://www.w3.org/1999/xlink" width="200" height="200"><defs><style type="text/css"></style></defs><path d="M961.422222 574.577778l15.170371 19.911111v70.162963l-18.962963 21.807407h-55.940741v10.42963h-12.325926c0-57.837037-36.02963-100.503704-106.192593-91.97037v-30.340741h-27.496296v-161.185185l11.377778-21.807408h167.822222c20.859259 37.925926 32.237037 77.748148 38.874074 116.622222H785.066667v6.637037h188.681481l0.948148 38.874075-9.481481 19.911111h-3.792593v0.948148z m-769.896296-265.481482h15.17037v244.622223h-15.17037V309.096296z m448.474074 0h15.17037v244.622223h-15.17037V309.096296z m-108.088889 0h15.17037v244.622223h-15.17037V309.096296z m-110.933333 0H436.148148v244.622223h-15.17037V309.096296z m-118.518519 0h15.170371v244.622223h-15.170371V309.096296zM94.814815 569.837037h643.792592v-284.444444H94.814815v284.444444z m12.325926 57.837037H80.592593v57.837037h18.962963c0 4.740741-0.948148 10.42963 0 16.118519h6.637037l6.637037 0.948148c1.896296-18.014815 5.688889-35.081481 11.377777-50.251852 5.688889-15.17037 12.325926-28.444444 19.911112-38.874074h109.985185c6.637037 12.325926 11.377778 25.6 15.17037 38.874074 4.740741 15.17037 7.585185 32.237037 9.481482 49.303704l10.429629-0.948149 10.42963 0.948149c1.896296-18.014815 5.688889-35.081481 11.377778-50.251852 5.688889-15.17037 12.325926-28.444444 19.911111-38.874074h109.985185c6.637037 12.325926 11.377778 25.6 15.17037 38.874074 4.740741 15.17037 7.585185 32.237037 9.481482 49.303703l13.274074-0.948148c0-2.844444-0.948148-5.688889-0.948148-8.533333v-6.637037h220.918518v16.118518h14.222222c-1.896296-47.407407 15.17037-81.540741 60.681482-95.762962v-13.274075c-9.481481 1.896296-17.066667 5.688889-24.651852 9.481482v-11.377778c-18.014815 0-34.133333-0.948148-51.2-0.948148v37.925926h-57.837037l-14.222222-37.925926H107.140741v38.874074z m700.681481-209.540741V483.555556l133.688889 18.014814c-1.896296-26.548148-8.533333-52.148148-19.911111-75.851851V455.111111c0 2.844444-1.896296 4.740741-4.740741 4.740741h-17.066666c-2.844444 0-4.740741-1.896296-4.740741-4.740741v-36.02963h-87.22963v-0.948148z m104.296297 242.725926v8.533334h39.822222v-8.533334h-39.822222zM900.740741 630.518519v8.533333h51.2v-8.533333H900.740741z m-18.014815-29.392593v8.533333h70.162963v-8.533333h-70.162963z m-686.459259 18.962963c20.859259 0 39.822222 8.533333 54.044444 22.755555s22.755556 33.185185 22.755556 54.044445-8.533333 39.822222-22.755556 54.044444-33.185185 22.755556-54.044444 22.755556-39.822222-8.533333-54.044445-22.755556-22.755556-33.185185-22.755555-54.044444 8.533333-39.822222 22.755555-54.044445 33.185185-22.755556 54.044445-22.755555z m-24.651852 73.007407c1.896296 0 3.792593 1.896296 3.792592 3.792593s-1.896296 3.792593-3.792592 3.792592-3.792593-1.896296-3.792593-3.792592c0-2.844444 1.896296-3.792593 3.792593-3.792593z m4.740741 18.014815c-1.896296 1.896296-1.896296 3.792593 0 5.688889 1.896296 1.896296 3.792593 1.896296 5.688888 0 1.896296-1.896296 1.896296-3.792593 0-5.688889-1.896296-0.948148-4.740741-0.948148-5.688888 0z m16.118518 9.481482c0 1.896296 1.896296 3.792593 3.792593 3.792592s3.792593-1.896296 3.792592-3.792592-1.896296-3.792593-3.792592-3.792593-3.792593 1.896296-3.792593 3.792593z m18.014815-3.792593c1.896296 1.896296 3.792593 1.896296 5.688889 0 1.896296-1.896296 1.896296-3.792593 0-5.688889-1.896296-1.896296-3.792593-1.896296-5.688889 0-0.948148 1.896296-0.948148 3.792593 0 5.688889z m10.42963-16.118519c-1.896296 0-3.792593-1.896296-3.792593-3.792592s1.896296-3.792593 3.792593-3.792593 3.792593 1.896296 3.792592 3.792593-1.896296 3.792593-3.792592 3.792592z m-4.740741-18.962962c-1.896296 1.896296-3.792593 1.896296-5.688889 0-1.896296-1.896296-1.896296-3.792593 0-5.688889 1.896296-1.896296 3.792593-1.896296 5.688889 0 0.948148 1.896296 0.948148 4.740741 0 5.688889z m-16.118519-9.481482c0 1.896296-1.896296 3.792593-3.792592 3.792593s-3.792593-1.896296-3.792593-3.792593 1.896296-3.792593 3.792593-3.792593 3.792593 1.896296 3.792592 3.792593z m-18.962963 4.740741c1.896296 1.896296 1.896296 3.792593 0 5.688889-1.896296 1.896296-3.792593 1.896296-5.688889 0-1.896296-1.896296-1.896296-3.792593 0-5.688889 1.896296-1.896296 4.740741-1.896296 5.688889 0z m36.977778-2.844445c5.688889 5.688889 9.481481 13.274074 9.481482 21.807408 0 8.533333-3.792593 16.118519-9.481482 21.807407-5.688889 5.688889-13.274074 9.481481-21.807407 9.481482-8.533333 0-16.118519-3.792593-21.807408-9.481482-5.688889-5.688889-9.481481-13.274074-9.481481-21.807407 0-8.533333 3.792593-16.118519 9.481481-21.807408 5.688889-5.688889 13.274074-9.481481 21.807408-9.481481 8.533333 0 16.118519 3.792593 21.807407 9.481481z m164.977778-54.044444c20.859259 0 39.822222 8.533333 54.044444 22.755555s22.755556 33.185185 22.755556 54.044445-8.533333 39.822222-22.755556 54.044444-33.185185 22.755556-54.044444 22.755556-39.822222-8.533333-54.044445-22.755556-22.755556-33.185185-22.755555-54.044444 8.533333-39.822222 22.755555-54.044445 33.185185-22.755556 54.044445-22.755555z m-23.703704 73.007407c1.896296 0 3.792593 1.896296 3.792593 3.792593s-1.896296 3.792593-3.792593 3.792592-3.792593-1.896296-3.792592-3.792592c0-2.844444 0.948148-3.792593 3.792592-3.792593z m3.792593 18.014815c-1.896296 1.896296-1.896296 3.792593 0 5.688889 1.896296 1.896296 3.792593 1.896296 5.688889 0 1.896296-1.896296 1.896296-3.792593 0-5.688889-1.896296-0.948148-3.792593-0.948148-5.688889 0z m16.118518 9.481482c0 1.896296 1.896296 3.792593 3.792593 3.792592s3.792593-1.896296 3.792592-3.792592-1.896296-3.792593-3.792592-3.792593-3.792593 1.896296-3.792593 3.792593z m18.962963-3.792593c1.896296 1.896296 3.792593 1.896296 5.688889 0 1.896296-1.896296 1.896296-3.792593 0-5.688889-1.896296-1.896296-3.792593-1.896296-5.688889 0-1.896296 1.896296-1.896296 3.792593 0 5.688889z m9.481482-16.118519c-1.896296 0-3.792593-1.896296-3.792593-3.792592s1.896296-3.792593 3.792593-3.792593 3.792593 1.896296 3.792592 3.792593-1.896296 3.792593-3.792592 3.792592z m-4.740741-18.962962c-1.896296 1.896296-3.792593 1.896296-5.688889 0-1.896296-1.896296-1.896296-3.792593 0-5.688889 1.896296-1.896296 3.792593-1.896296 5.688889 0 1.896296 1.896296 1.896296 4.740741 0 5.688889z m-16.118519-9.481482c0 1.896296-1.896296 3.792593-3.792592 3.792593s-3.792593-1.896296-3.792593-3.792593 1.896296-3.792593 3.792593-3.792593 3.792593 1.896296 3.792592 3.792593z m-18.014814 4.740741c1.896296 1.896296 1.896296 3.792593 0 5.688889-1.896296 1.896296-3.792593 1.896296-5.688889 0-1.896296-1.896296-1.896296-3.792593 0-5.688889 1.896296-1.896296 3.792593-1.896296 5.688889 0z m36.977777-2.844445c5.688889 5.688889 9.481481 13.274074 9.481482 21.807408 0 8.533333-3.792593 16.118519-9.481482 21.807407-5.688889 5.688889-13.274074 9.481481-21.807407 9.481482-8.533333 0-16.118519-3.792593-21.807407-9.481482-5.688889-5.688889-9.481481-13.274074-9.481482-21.807407 0-8.533333 3.792593-16.118519 9.481482-21.807408 5.688889-5.688889 13.274074-9.481481 21.807407-9.481481 7.585185 0 16.118519 3.792593 21.807407 9.481481z m394.42963-54.044444c-20.859259 0-39.822222 8.533333-54.044444 22.755555s-22.755556 33.185185-22.755556 54.044445 8.533333 39.822222 22.755556 54.044444 33.185185 22.755556 54.044444 22.755556 39.822222-8.533333 54.044444-22.755556 22.755556-33.185185 22.755556-54.044444-8.533333-39.822222-22.755556-54.044445c-13.274074-14.222222-32.237037-22.755556-54.044444-22.755555z m-23.703704 73.007407c-1.896296 0-3.792593 1.896296-3.792592 3.792593s1.896296 3.792593 3.792592 3.792592 3.792593-1.896296 3.792593-3.792592c0-2.844444-1.896296-3.792593-3.792593-3.792593z m3.792593 18.014815c1.896296-1.896296 3.792593-1.896296 5.688889 0 1.896296 1.896296 1.896296 3.792593 0 5.688889-1.896296 1.896296-3.792593 1.896296-5.688889 0-0.948148-1.896296-0.948148-3.792593 0-5.688889z m16.118518 9.481482c0-1.896296 1.896296-3.792593 3.792593-3.792593s3.792593 1.896296 3.792593 3.792593-1.896296 3.792593-3.792593 3.792592-3.792593-0.948148-3.792593-3.792592z m18.962963-3.792593c-1.896296-1.896296-1.896296-3.792593 0-5.688889 1.896296-1.896296 3.792593-1.896296 5.688889 0 1.896296 1.896296 1.896296 3.792593 0 5.688889-1.896296 0.948148-4.740741 0.948148-5.688889 0z m9.481482-16.118519c1.896296 0 3.792593-1.896296 3.792592-3.792592s-1.896296-3.792593-3.792592-3.792593-3.792593 1.896296-3.792593 3.792593 1.896296 3.792593 3.792593 3.792592z m-4.740741-18.962962c1.896296-1.896296 1.896296-3.792593 0-5.688889-1.896296-1.896296-3.792593-1.896296-5.688889 0-1.896296 1.896296-1.896296 3.792593 0 5.688889 1.896296 1.896296 4.740741 1.896296 5.688889 0z m-16.118518-9.481482c0-1.896296-1.896296-3.792593-3.792593-3.792593s-3.792593 1.896296-3.792593 3.792593 1.896296 3.792593 3.792593 3.792593 3.792593-1.896296 3.792593-3.792593z m-18.014815 4.740741c-1.896296-1.896296-3.792593-1.896296-5.688889 0-1.896296 1.896296-1.896296 3.792593 0 5.688889 1.896296 1.896296 3.792593 1.896296 5.688889 0 0.948148-1.896296 0.948148-4.740741 0-5.688889z m36.977778-2.844445c-5.688889-5.688889-13.274074-9.481481-21.807408-9.481481-8.533333 0-16.118519 3.792593-21.807407 9.481481-5.688889 5.688889-9.481481 13.274074-9.481482 21.807408 0 8.533333 3.792593 16.118519 9.481482 21.807407 5.688889 5.688889 13.274074 9.481481 21.807407 9.481482 8.533333 0 16.118519-3.792593 21.807408-9.481482 5.688889-5.688889 9.481481-13.274074 9.481481-21.807407-0.948148-8.533333-3.792593-16.118519-9.481481-21.807408z" p-id="1385"></path></svg>